<?xml version="1.0" encoding="UTF-8"?>
<!DOCTYPE svg PUBLIC "-//W3C//DTD SVG 1.1//EN" "http://www.w3.org/Graphics/SVG/1.1/DTD/svg11.dtd">
<svg xmlns="http://www.w3.org/2000/svg" version="1.1" width="500px" height="500px" style="shape-rendering:geometricPrecision; text-rendering:geometricPrecision; image-rendering:optimizeQuality; fill-rule:evenodd; clip-rule:evenodd" xmlns:xlink="http://www.w3.org/1999/xlink">
<g><path style="opacity:0.004" fill="#fefffe" d="M 22.5,10.5 C 23.8333,11.1667 23.8333,11.1667 22.5,10.5 Z"/></g>
<g><path style="opacity:0.004" fill="#fefffe" d="M 366.5,11.5 C 367.833,12.1667 367.833,12.1667 366.5,11.5 Z"/></g>
<g><path style="opacity:0.004" fill="#fefffe" d="M 20.5,15.5 C 21.8333,16.1667 21.8333,16.1667 20.5,15.5 Z"/></g>
<g><path style="opacity:0.004" fill="#fefffe" d="M 38.5,20.5 C 39.8333,21.1667 39.8333,21.1667 38.5,20.5 Z"/></g>
<g><path style="opacity:0.004" fill="#fefffe" d="M 45.5,21.5 C 46.8333,22.1667 46.8333,22.1667 45.5,21.5 Z"/></g>
<g><path style="opacity:0.004" fill="#fefffe" d="M 33.5,37.5 C 34.8333,38.1667 34.8333,38.1667 33.5,37.5 Z"/></g>
<g><path style="opacity:0.004" fill="#fefffe" d="M 317.5,37.5 C 318.833,38.1667 318.833,38.1667 317.5,37.5 Z"/></g>
<g><path style="opacity:0.004" fill="#fefffe" d="M 129.5,40.5 C 130.833,41.1667 130.833,41.1667 129.5,40.5 Z"/></g>
<g><path style="opacity:0.004" fill="#fefffe" d="M 229.5,47.5 C 230.833,48.1667 230.833,48.1667 229.5,47.5 Z"/></g>
<g><path style="opacity:0.004" fill="#fefffe" d="M 130.5,57.5 C 131.833,58.1667 131.833,58.1667 130.5,57.5 Z"/></g>
<g><path style="opacity:1" fill="#5eb6ec" d="M 227.5,63.5 C 292.5,63.5 357.5,63.5 422.5,63.5C 422.5,86.1667 422.5,108.833 422.5,131.5C 420.167,131.5 417.833,131.5 415.5,131.5C 412.264,130.135 408.931,129.135 405.5,128.5C 409.24,128.759 412.906,128.426 416.5,127.5C 417.386,128.325 417.719,129.325 417.5,130.5C 418.5,130.5 419.5,130.5 420.5,130.5C 420.5,108.5 420.5,86.5 420.5,64.5C 356.832,64.3333 293.166,64.5 229.5,65C 224.343,66.2828 219.01,66.9495 213.5,67C 206.821,69.9203 199.821,71.7536 192.5,72.5C 194.261,71.6873 195.928,70.6873 197.5,69.5C 198.919,68.5489 200.585,68.2155 202.5,68.5C 205.152,68.5905 207.485,67.9238 209.5,66.5C 215.341,64.7329 221.341,63.7329 227.5,63.5 Z"/></g>
<g><path style="opacity:0.051" fill="#dcf8fe" d="M 227.5,63.5 C 292.665,62.5009 357.998,62.1675 423.5,62.5C 423.5,85.8333 423.5,109.167 423.5,132.5C 420.615,132.806 417.948,132.473 415.5,131.5C 417.833,131.5 420.167,131.5 422.5,131.5C 422.5,108.833 422.5,86.1667 422.5,63.5C 357.5,63.5 292.5,63.5 227.5,63.5 Z"/></g>
<g><path style="opacity:1" fill="#38b6fe" d="M 405.5,128.5 C 402.167,128.5 398.833,128.5 395.5,128.5C 395.082,127.778 394.416,127.278 393.5,127C 372.183,125.668 350.85,124.834 329.5,124.5C 329.263,125.791 329.596,126.791 330.5,127.5C 331.492,127.328 332.158,127.662 332.5,128.5C 334.317,130.012 335.317,132.012 335.5,134.5C 337.903,134.448 340.236,134.781 342.5,135.5C 343.5,135.833 344.167,136.5 344.5,137.5C 344.833,138.5 345.5,139.167 346.5,139.5C 346.973,140.906 347.973,141.573 349.5,141.5C 350.757,144.427 352.757,146.761 355.5,148.5C 355.738,150.404 356.738,151.738 358.5,152.5C 358.738,154.404 359.738,155.738 361.5,156.5C 361.427,158.027 362.094,159.027 363.5,159.5C 363.502,163.165 364.835,166.165 367.5,168.5C 368.58,170.045 368.58,171.545 367.5,173C 368.756,174.479 369.756,176.145 370.5,178C 369.545,181.471 369.378,184.971 370,188.5C 371.252,186.999 372.252,185.332 373,183.5C 374.367,187.661 375.867,191.661 377.5,195.5C 378.5,198.167 379.5,200.833 380.5,203.5C 380.5,204.167 380.5,204.833 380.5,205.5C 380.5,206.833 380.5,208.167 380.5,209.5C 383.069,236.732 380.902,263.399 374,289.5C 373.692,288.692 373.192,288.025 372.5,287.5C 370.585,290.324 370.585,293.324 372.5,296.5C 372.167,298.5 371.833,300.5 371.5,302.5C 370.069,303.78 369.402,305.447 369.5,307.5C 369.573,309.027 368.906,310.027 367.5,310.5C 365.744,311.552 365.077,313.219 365.5,315.5C 364.5,315.5 363.5,315.5 362.5,315.5C 362.5,317.167 362.5,318.833 362.5,320.5C 361.167,320.5 359.833,320.5 358.5,320.5C 358.007,322.806 357.674,325.139 357.5,327.5C 356.5,327.5 355.5,327.5 354.5,327.5C 353.783,330.323 352.783,332.99 351.5,335.5C 350.325,335.281 349.325,335.614 348.5,336.5C 349.791,337.527 349.791,338.527 348.5,339.5C 347.5,339.833 346.833,340.5 346.5,341.5C 345.292,342.234 343.959,342.567 342.5,342.5C 342.5,343.833 342.5,345.167 342.5,346.5C 340.5,346.5 339.5,347.5 339.5,349.5C 338.833,350.167 338.167,350.833 337.5,351.5C 335.076,351.192 332.743,351.526 330.5,352.5C 331.127,353.417 331.461,354.417 331.5,355.5C 330.167,356.167 329.167,357.167 328.5,358.5C 328.5,359.167 328.167,359.5 327.5,359.5C 325.973,359.427 324.973,360.094 324.5,361.5C 323.035,362.737 321.368,363.737 319.5,364.5C 317.011,364.241 315.344,365.241 314.5,367.5C 313.167,367.833 311.833,368.167 310.5,368.5C 307.881,368.768 305.381,368.435 303,367.5C 301.833,369.333 300.667,371.167 299.5,373C 296.215,373.759 293.215,375.092 290.5,377C 286.236,377.371 282.069,378.204 278,379.5C 274.993,378.021 271.826,377.354 268.5,377.5C 268.579,378.93 268.246,380.264 267.5,381.5C 252.222,383.236 236.889,383.902 221.5,383.5C 217.466,383.495 213.466,383.162 209.5,382.5C 204.867,382.322 200.533,381.322 196.5,379.5C 194.898,377.926 192.898,377.259 190.5,377.5C 190.167,377.5 189.833,377.5 189.5,377.5C 187.824,375.166 185.491,374.166 182.5,374.5C 181.209,374.737 180.209,374.404 179.5,373.5C 179.5,372.5 179.5,371.5 179.5,370.5C 176.833,370.167 174.167,369.833 171.5,369.5C 171.027,368.094 170.027,367.427 168.5,367.5C 168.167,367.5 167.833,367.5 167.5,367.5C 166.738,365.738 165.404,364.738 163.5,364.5C 161.847,364.34 160.514,363.674 159.5,362.5C 159.027,361.094 158.027,360.427 156.5,360.5C 155.833,359.5 155.167,358.5 154.5,357.5C 153.206,355.704 152.206,353.704 151.5,351.5C 150.035,352.609 149.035,352.109 148.5,350C 146.403,348.39 144.07,347.223 141.5,346.5C 141.167,345.833 140.833,345.167 140.5,344.5C 141.484,342.52 142.817,340.853 144.5,339.5C 143.533,337.37 142.366,335.37 141,333.5C 140.311,334.357 139.478,335.023 138.5,335.5C 137.5,334.167 136.5,332.833 135.5,331.5C 133.257,332.383 131.59,331.549 130.5,329C 131.167,328.667 131.833,328.333 132.5,328C 130.939,327.059 129.605,325.892 128.5,324.5C 130.259,323.246 131.759,323.579 133,325.5C 133.667,324.833 133.667,324.167 133,323.5C 129.67,320.754 127.004,321.42 125,325.5C 124.5,324.333 123.667,323.5 122.5,323C 123.289,319.903 124.456,319.736 126,322.5C 125.981,318.849 125.481,315.182 124.5,311.5C 123.451,314.08 122.784,316.746 122.5,319.5C 121.167,319.5 119.833,319.5 118.5,319.5C 115.941,311.873 112.941,304.373 109.5,297C 109.833,296 110.167,295 110.5,294C 109.207,293.51 107.873,293.343 106.5,293.5C 106.519,291.94 106.852,290.44 107.5,289C 106.99,287.174 106.156,287.007 105,288.5C 104.295,285.524 103.129,282.858 101.5,280.5C 100.611,271.895 99.2774,263.395 97.5,255C 98.0585,254.275 98.3918,253.442 98.5,252.5C 96.5524,233.607 95.8858,214.607 96.5,195.5C 97.1266,190.859 97.4599,186.193 97.5,181.5C 97.5,181.167 97.5,180.833 97.5,180.5C 100,177.34 101.333,173.673 101.5,169.5C 101.5,169.167 101.5,168.833 101.5,168.5C 102.117,168.389 102.617,168.056 103,167.5C 103.988,164.576 104.654,161.576 105,158.5C 105.333,158.833 105.667,159.167 106,159.5C 106.696,156.522 107.196,153.522 107.5,150.5C 109.245,146.929 110.578,143.262 111.5,139.5C 113.664,137.178 115.331,134.511 116.5,131.5C 117.906,131.027 118.573,130.027 118.5,128.5C 121.871,125.945 124.204,122.612 125.5,118.5C 127.262,117.738 128.262,116.404 128.5,114.5C 130.144,114.19 131.144,113.19 131.5,111.5C 133.167,110.167 134.833,108.833 136.5,107.5C 139.563,105.949 142.229,103.782 144.5,101C 145.784,100.316 146.951,100.483 148,101.5C 148.29,99.0796 148.79,96.7463 149.5,94.5C 151.027,94.573 152.027,93.9063 152.5,92.5C 154.889,92.0212 156.556,90.6879 157.5,88.5C 159.027,88.573 160.027,87.9063 160.5,86.5C 162.027,86.573 163.027,85.9063 163.5,84.5C 163.842,83.6618 164.508,83.3284 165.5,83.5C 167.027,83.573 168.027,82.9063 168.5,81.5C 168.833,81.5 169.167,81.5 169.5,81.5C 171.027,81.573 172.027,80.9063 172.5,79.5C 176.165,79.4982 179.165,78.1648 181.5,75.5C 184.491,75.8337 186.824,74.8337 188.5,72.5C 189.833,72.5 191.167,72.5 192.5,72.5C 199.821,71.7536 206.821,69.9203 213.5,67C 219.01,66.9495 224.343,66.2828 229.5,65C 293.166,64.5 356.832,64.3333 420.5,64.5C 420.5,86.5 420.5,108.5 420.5,130.5C 419.5,130.5 418.5,130.5 417.5,130.5C 417.719,129.325 417.386,128.325 416.5,127.5C 412.906,128.426 409.24,128.759 405.5,128.5 Z M 257.5,133.5 C 259.649,134.736 261.982,135.736 264.5,136.5C 265.514,137.674 266.847,138.34 268.5,138.5C 269.262,140.262 270.596,141.262 272.5,141.5C 274.5,144.167 276.833,146.5 279.5,148.5C 280.473,151.135 282.14,153.135 284.5,154.5C 284.328,155.492 284.662,156.158 285.5,156.5C 287.515,159.869 289.515,163.202 291.5,166.5C 291.328,167.492 291.662,168.158 292.5,168.5C 292.707,171.241 293.707,173.574 295.5,175.5C 295.5,175.833 295.5,176.167 295.5,176.5C 295.402,178.553 296.069,180.22 297.5,181.5C 297.5,181.833 297.5,182.167 297.5,182.5C 297.595,184.786 298.262,186.786 299.5,188.5C 300.734,196.65 302.068,204.65 303.5,212.5C 303.5,213.5 303.5,214.5 303.5,215.5C 304.361,232.7 303.028,249.7 299.5,266.5C 299.5,267.167 299.5,267.833 299.5,268.5C 297.896,269.287 297.229,270.62 297.5,272.5C 297.5,272.833 297.5,273.167 297.5,273.5C 296.069,274.78 295.402,276.447 295.5,278.5C 294.596,279.209 294.263,280.209 294.5,281.5C 293.094,281.973 292.427,282.973 292.5,284.5C 292.5,284.833 292.5,285.167 292.5,285.5C 290.412,287.336 289.079,289.669 288.5,292.5C 286.469,293.539 285.136,295.205 284.5,297.5C 282.215,299.118 280.215,301.118 278.5,303.5C 277.5,303.833 276.833,304.5 276.5,305.5C 274.973,305.427 273.973,306.094 273.5,307.5C 271.223,308.449 269.223,309.782 267.5,311.5C 266.391,311.557 265.391,311.89 264.5,312.5C 261.982,313.264 259.649,314.264 257.5,315.5C 246.782,317.534 236.116,317.534 225.5,315.5C 224.07,314.463 222.403,313.796 220.5,313.5C 219.791,312.596 218.791,312.263 217.5,312.5C 216.564,311.026 215.23,310.026 213.5,309.5C 213.158,308.662 212.492,308.328 211.5,308.5C 211.027,307.094 210.027,306.427 208.5,306.5C 207.833,305.167 206.833,304.167 205.5,303.5C 204.5,301.833 203.167,300.5 201.5,299.5C 200.598,297.659 199.264,296.326 197.5,295.5C 197.573,293.973 196.906,292.973 195.5,292.5C 195.672,291.508 195.338,290.842 194.5,290.5C 194.002,287.674 192.669,285.34 190.5,283.5C 190.5,283.167 190.5,282.833 190.5,282.5C 190.573,280.973 189.906,279.973 188.5,279.5C 188.5,279.167 188.5,278.833 188.5,278.5C 188.573,276.973 187.906,275.973 186.5,275.5C 186.768,273.901 186.434,272.568 185.5,271.5C 185.405,269.214 184.738,267.214 183.5,265.5C 183.237,260.876 182.237,256.542 180.5,252.5C 180.628,248.119 180.295,243.785 179.5,239.5C 179.5,227.5 179.5,215.5 179.5,203.5C 180.367,196.838 181.367,190.171 182.5,183.5C 183.774,181.007 184.44,178.341 184.5,175.5C 185.931,174.22 186.598,172.553 186.5,170.5C 186.5,170.167 186.5,169.833 186.5,169.5C 188.104,168.713 188.771,167.38 188.5,165.5C 189.338,165.158 189.672,164.492 189.5,163.5C 191.588,161.664 192.921,159.331 193.5,156.5C 194.906,156.027 195.573,155.027 195.5,153.5C 196.5,153.167 197.167,152.5 197.5,151.5C 199.5,150.167 201.167,148.5 202.5,146.5C 203.167,146.5 203.5,146.167 203.5,145.5C 207.027,142.577 210.694,139.91 214.5,137.5C 216.819,137.008 218.819,136.008 220.5,134.5C 232.761,131.076 245.094,130.743 257.5,133.5 Z"/></g>
<g><path style="opacity:0.753" fill="#9fdaf7" d="M 209.5,66.5 C 207.485,67.9238 205.152,68.5905 202.5,68.5C 204.438,66.8372 206.772,66.1706 209.5,66.5 Z"/></g>
<g><path style="opacity:0.655" fill="#a6ddf5" d="M 197.5,69.5 C 195.928,70.6873 194.261,71.6873 192.5,72.5C 191.167,72.5 189.833,72.5 188.5,72.5C 191.215,70.9281 194.215,69.9281 197.5,69.5 Z"/></g>
<g><path style="opacity:0.925" fill="#a4d7f1" d="M 188.5,72.5 C 186.824,74.8337 184.491,75.8337 181.5,75.5C 183.509,73.9348 185.843,72.9348 188.5,72.5 Z"/></g>
<g><path style="opacity:0.906" fill="#a5daf6" d="M 181.5,75.5 C 179.165,78.1648 176.165,79.4982 172.5,79.5C 175.088,77.3754 178.088,76.0421 181.5,75.5 Z"/></g>
<g><path style="opacity:0.631" fill="#ade1f6" d="M 172.5,79.5 C 172.027,80.9063 171.027,81.573 169.5,81.5C 169.973,80.0937 170.973,79.427 172.5,79.5 Z"/></g>
<g><path style="opacity:0.322" fill="#dcf9ff" d="M 168.5,81.5 C 168.027,82.9063 167.027,83.573 165.5,83.5C 165.973,82.0937 166.973,81.427 168.5,81.5 Z"/></g>
<g><path style="opacity:0.004" fill="#fefffe" d="M 451.5,84.5 C 452.833,85.1667 452.833,85.1667 451.5,84.5 Z"/></g>
<g><path style="opacity:0.686" fill="#b0e6fb" d="M 163.5,84.5 C 163.027,85.9063 162.027,86.573 160.5,86.5C 160.973,85.0937 161.973,84.427 163.5,84.5 Z"/></g>
<g><path style="opacity:0.671" fill="#b1e7ff" d="M 160.5,86.5 C 160.027,87.9063 159.027,88.573 157.5,88.5C 157.973,87.0937 158.973,86.427 160.5,86.5 Z"/></g>
<g><path style="opacity:0.984" fill="#8bcbef" d="M 157.5,88.5 C 156.556,90.6879 154.889,92.0212 152.5,92.5C 153.539,90.4689 155.205,89.1355 157.5,88.5 Z"/></g>
<g><path style="opacity:0.878" fill="#9ad8f4" d="M 152.5,92.5 C 152.027,93.9063 151.027,94.573 149.5,94.5C 149.973,93.0937 150.973,92.427 152.5,92.5 Z"/></g>
<g><path style="opacity:0.004" fill="#fefffe" d="M 98.5,100.5 C 99.8333,101.167 99.8333,101.167 98.5,100.5 Z"/></g>
<g><path style="opacity:1" fill="#54b6eb" d="M 149.5,94.5 C 148.79,96.7463 148.29,99.0796 148,101.5C 146.951,100.483 145.784,100.316 144.5,101C 142.229,103.782 139.563,105.949 136.5,107.5C 139.5,104.167 142.5,100.833 145.5,97.5C 146.262,95.7376 147.596,94.7376 149.5,94.5 Z"/></g>
<g><path style="opacity:0.675" fill="#bbe7fa" d="M 145.5,97.5 C 142.5,100.833 139.5,104.167 136.5,107.5C 134.833,108.833 133.167,110.167 131.5,111.5C 135.167,105.833 139.833,101.167 145.5,97.5 Z"/></g>
<g><path style="opacity:0.831" fill="#b0e1f1" d="M 131.5,111.5 C 131.144,113.19 130.144,114.19 128.5,114.5C 128.856,112.81 129.856,111.81 131.5,111.5 Z"/></g>
<g><path style="opacity:0.58" fill="#bee9fd" d="M 128.5,114.5 C 128.262,116.404 127.262,117.738 125.5,118.5C 125.738,116.596 126.738,115.262 128.5,114.5 Z"/></g>
<g><path style="opacity:0.992" fill="#9bd5f3" d="M 125.5,118.5 C 124.204,122.612 121.871,125.945 118.5,128.5C 120.062,124.608 122.395,121.275 125.5,118.5 Z"/></g>
<g><path style="opacity:0.895" fill="#8cccf2" d="M 395.5,128.5 C 395.5,128.833 395.5,129.167 395.5,129.5C 385.493,128.818 375.493,127.984 365.5,127C 353.659,126.174 341.993,126.341 330.5,127.5C 329.596,126.791 329.263,125.791 329.5,124.5C 350.85,124.834 372.183,125.668 393.5,127C 394.416,127.278 395.082,127.778 395.5,128.5 Z"/></g>
<g><path style="opacity:1" fill="#96d1f5" d="M 395.5,129.5 C 395.5,129.167 395.5,128.833 395.5,128.5C 398.833,128.5 402.167,128.5 405.5,128.5C 408.931,129.135 412.264,130.135 415.5,131.5C 408.808,130.927 402.141,130.261 395.5,129.5 Z"/></g>
<g><path style="opacity:0.424" fill="#b2e6fb" d="M 118.5,128.5 C 118.573,130.027 117.906,131.027 116.5,131.5C 116.427,129.973 117.094,128.973 118.5,128.5 Z"/></g>
<g><path style="opacity:1" fill="#75c2f3" d="M 270.5,138.5 C 269.833,138.5 269.167,138.5 268.5,138.5C 266.847,138.34 265.514,137.674 264.5,136.5C 262.824,134.166 260.491,133.166 257.5,133.5C 245.094,130.743 232.761,131.076 220.5,134.5C 218.833,134.5 217.167,134.5 215.5,134.5C 221.478,131.991 227.811,130.158 234.5,129C 239.167,128.333 243.833,128.333 248.5,129C 252.304,130.05 256.137,130.884 260,131.5C 261.343,130.786 262.676,131.12 264,132.5C 265.133,130.789 266.633,130.289 268.5,131C 267.624,132.585 266.291,133.585 264.5,134C 266.684,135.363 268.684,136.863 270.5,138.5 Z"/></g>
<g><path style="opacity:1" fill="#8fcdf3" d="M 332.5,128.5 C 336.221,130.354 339.554,132.687 342.5,135.5C 340.236,134.781 337.903,134.448 335.5,134.5C 335.317,132.012 334.317,130.012 332.5,128.5 Z"/></g>
<g><path style="opacity:0.973" fill="#a9e0f8" d="M 215.5,134.5 C 217.167,134.5 218.833,134.5 220.5,134.5C 218.819,136.008 216.819,137.008 214.5,137.5C 215.11,136.609 215.443,135.609 215.5,134.5 Z"/></g>
<g><path style="opacity:0.09" fill="#cdf2fd" d="M 257.5,133.5 C 260.491,133.166 262.824,134.166 264.5,136.5C 261.982,135.736 259.649,134.736 257.5,133.5 Z"/></g>
<g><path style="opacity:0.078" fill="#d8f8fe" d="M 116.5,131.5 C 115.331,134.511 113.664,137.178 111.5,139.5C 112.169,136.151 113.836,133.484 116.5,131.5 Z"/></g>
<g><path style="opacity:0.008" fill="#e5f8ff" d="M 344.5,137.5 C 345.833,137.5 346.5,138.167 346.5,139.5C 345.5,139.167 344.833,138.5 344.5,137.5 Z"/></g>
<g><path style="opacity:0.004" fill="#fefffe" d="M 435.5,138.5 C 436.833,139.167 436.833,139.167 435.5,138.5 Z"/></g>
<g><path style="opacity:1" fill="#7ac5f1" d="M 214.5,137.5 C 210.694,139.91 207.027,142.577 203.5,145.5C 203.104,142.956 203.771,140.789 205.5,139C 208.478,138.304 211.478,137.804 214.5,137.5 Z"/></g>
<g><path style="opacity:0.376" fill="#b9e5f8" d="M 268.5,138.5 C 269.167,138.5 269.833,138.5 270.5,138.5C 271.167,139.5 271.833,140.5 272.5,141.5C 270.596,141.262 269.262,140.262 268.5,138.5 Z"/></g>
<g><path style="opacity:0.051" fill="#d8f3fe" d="M 346.5,139.5 C 348.027,139.427 349.027,140.094 349.5,141.5C 347.973,141.573 346.973,140.906 346.5,139.5 Z"/></g>
<g><path style="opacity:0.706" fill="#b7e6fa" d="M 272.5,141.5 C 275.833,142.833 278.167,145.167 279.5,148.5C 276.833,146.5 274.5,144.167 272.5,141.5 Z"/></g>
<g><path style="opacity:0.847" fill="#a0d4f2" d="M 111.5,139.5 C 110.578,143.262 109.245,146.929 107.5,150.5C 107.167,150.5 106.833,150.5 106.5,150.5C 107.399,146.376 109.066,142.709 111.5,139.5 Z"/></g>
<g><path style="opacity:0.357" fill="#c5eeff" d="M 349.5,141.5 C 352.243,143.239 354.243,145.573 355.5,148.5C 352.757,146.761 350.757,144.427 349.5,141.5 Z"/></g>
<g><path style="opacity:0.004" fill="#fefffe" d="M 25.5,147.5 C 26.8333,148.167 26.8333,148.167 25.5,147.5 Z"/></g>
<g><path style="opacity:0.094" fill="#cdf3fe" d="M 202.5,146.5 C 201.167,148.5 199.5,150.167 197.5,151.5C 198.167,148.833 199.833,147.167 202.5,146.5 Z"/></g>
<g><path style="opacity:0.573" fill="#b9e1f9" d="M 355.5,148.5 C 357.262,149.262 358.262,150.596 358.5,152.5C 356.738,151.738 355.738,150.404 355.5,148.5 Z"/></g>
<g><path style="opacity:0.239" fill="#ddfcff" d="M 279.5,148.5 C 281.89,149.891 283.557,151.891 284.5,154.5C 282.14,153.135 280.473,151.135 279.5,148.5 Z"/></g>
<g><path style="opacity:0.039" fill="#bef4fe" d="M 195.5,153.5 C 195.573,155.027 194.906,156.027 193.5,156.5C 193.427,154.973 194.094,153.973 195.5,153.5 Z"/></g>
<g><path style="opacity:0.502" fill="#b3edfe" d="M 358.5,152.5 C 360.262,153.262 361.262,154.596 361.5,156.5C 359.738,155.738 358.738,154.404 358.5,152.5 Z"/></g>
<g><path style="opacity:0.071" fill="#d7f8ff" d="M 105.5,153.5 C 105.34,155.153 104.674,156.486 103.5,157.5C 103.229,155.62 103.896,154.287 105.5,153.5 Z"/></g>
<g><path style="opacity:1" fill="#5bb8ef" d="M 106.5,150.5 C 106.833,150.5 107.167,150.5 107.5,150.5C 107.196,153.522 106.696,156.522 106,159.5C 105.667,159.167 105.333,158.833 105,158.5C 104.654,161.576 103.988,164.576 103,167.5C 102.617,168.056 102.117,168.389 101.5,168.5C 101.5,167.167 101.5,165.833 101.5,164.5C 103.074,162.898 103.741,160.898 103.5,158.5C 103.5,158.167 103.5,157.833 103.5,157.5C 104.674,156.486 105.34,155.153 105.5,153.5C 105.263,152.209 105.596,151.209 106.5,150.5 Z"/></g>
<g><path style="opacity:0.024" fill="#caf3fd" d="M 193.5,156.5 C 192.921,159.331 191.588,161.664 189.5,163.5C 189.998,160.674 191.331,158.34 193.5,156.5 Z"/></g>
<g><path style="opacity:0.267" fill="#c1f1ff" d="M 361.5,156.5 C 362.906,156.973 363.573,157.973 363.5,159.5C 362.094,159.027 361.427,158.027 361.5,156.5 Z"/></g>
<g><path style="opacity:1" fill="#96d1f0" d="M 285.5,156.5 C 288.411,157.978 290.411,160.311 291.5,163.5C 291.5,164.5 291.5,165.5 291.5,166.5C 289.515,163.202 287.515,159.869 285.5,156.5 Z"/></g>
<g><path style="opacity:0.808" fill="#b3e4f3" d="M 103.5,158.5 C 103.741,160.898 103.074,162.898 101.5,164.5C 101.259,162.102 101.926,160.102 103.5,158.5 Z"/></g>
<g><path style="opacity:1" fill="#72c3f6" d="M 303.5,212.5 C 302.068,204.65 300.734,196.65 299.5,188.5C 299.741,186.102 299.074,184.102 297.5,182.5C 297.5,182.167 297.5,181.833 297.5,181.5C 297.598,179.447 296.931,177.78 295.5,176.5C 295.5,176.167 295.5,175.833 295.5,175.5C 295.293,172.759 294.293,170.426 292.5,168.5C 291.662,168.158 291.328,167.492 291.5,166.5C 291.5,165.5 291.5,164.5 291.5,163.5C 292.721,162.972 293.887,162.305 295,161.5C 295.498,164.482 295.665,167.482 295.5,170.5C 298.761,170.1 299.428,171.267 297.5,174C 301.636,186.513 303.636,199.346 303.5,212.5 Z"/></g>
<g><path style="opacity:0.996" fill="#81c7ed" d="M 363.5,159.5 C 365.588,161.336 366.921,163.669 367.5,166.5C 367.5,167.167 367.5,167.833 367.5,168.5C 364.835,166.165 363.502,163.165 363.5,159.5 Z"/></g>
<g><path style="opacity:0.063" fill="#cbf7ff" d="M 188.5,165.5 C 188.771,167.38 188.104,168.713 186.5,169.5C 186.66,167.847 187.326,166.514 188.5,165.5 Z"/></g>
<g><path style="opacity:0.149" fill="#def8ff" d="M 367.5,166.5 C 368.906,166.973 369.573,167.973 369.5,169.5C 368.833,169.167 368.167,168.833 367.5,168.5C 367.5,167.833 367.5,167.167 367.5,166.5 Z"/></g>
<g><path style="opacity:0.184" fill="#d2f5fe" d="M 292.5,168.5 C 294.293,170.426 295.293,172.759 295.5,175.5C 293.707,173.574 292.707,171.241 292.5,168.5 Z"/></g>
<g><path style="opacity:0.116" fill="#cef2fb" d="M 101.5,164.5 C 101.5,165.833 101.5,167.167 101.5,168.5C 101.5,168.833 101.5,169.167 101.5,169.5C 100.313,171.072 99.3127,172.739 98.5,174.5C 98.7234,170.838 99.7234,167.505 101.5,164.5 Z"/></g>
<g><path style="opacity:0.043" fill="#c8f3fc" d="M 369.5,170.5 C 371.104,171.287 371.771,172.62 371.5,174.5C 370.326,173.486 369.66,172.153 369.5,170.5 Z"/></g>
<g><path style="opacity:0.333" fill="#d6faff" d="M 186.5,170.5 C 186.598,172.553 185.931,174.22 184.5,175.5C 184.402,173.447 185.069,171.78 186.5,170.5 Z"/></g>
<g><path style="opacity:0.994" fill="#6fbfee" d="M 101.5,169.5 C 101.333,173.673 100,177.34 97.5,180.5C 97.3253,178.379 97.6586,176.379 98.5,174.5C 99.3127,172.739 100.313,171.072 101.5,169.5 Z"/></g>
<g><path style="opacity:0.086" fill="#dbfbff" d="M 371.5,174.5 C 373.448,176.32 374.448,178.654 374.5,181.5C 372.935,179.491 371.935,177.157 371.5,174.5 Z"/></g>
<g><path style="opacity:0.318" fill="#b8edfd" d="M 295.5,176.5 C 296.931,177.78 297.598,179.447 297.5,181.5C 296.069,180.22 295.402,178.553 295.5,176.5 Z"/></g>
<g><path style="opacity:1" fill="#4bb6f3" d="M 367.5,168.5 C 368.167,168.833 368.833,169.167 369.5,169.5C 369.5,169.833 369.5,170.167 369.5,170.5C 369.66,172.153 370.326,173.486 371.5,174.5C 371.935,177.157 372.935,179.491 374.5,181.5C 374.5,181.833 374.5,182.167 374.5,182.5C 374.66,184.153 375.326,185.486 376.5,186.5C 377.038,188.117 377.371,189.784 377.5,191.5C 377.5,192.833 377.5,194.167 377.5,195.5C 375.867,191.661 374.367,187.661 373,183.5C 372.252,185.332 371.252,186.999 370,188.5C 369.378,184.971 369.545,181.471 370.5,178C 369.756,176.145 368.756,174.479 367.5,173C 368.58,171.545 368.58,170.045 367.5,168.5 Z"/></g>
<g><path style="opacity:0.078" fill="#daf9ff" d="M 374.5,182.5 C 376.104,183.287 376.771,184.62 376.5,186.5C 375.326,185.486 374.66,184.153 374.5,182.5 Z"/></g>
<g><path style="opacity:0.443" fill="#bfebfd" d="M 297.5,182.5 C 299.074,184.102 299.741,186.102 299.5,188.5C 298.262,186.786 297.595,184.786 297.5,182.5 Z"/></g>
<g><path style="opacity:0.776" fill="#95d5f6" d="M 97.5,181.5 C 97.4599,186.193 97.1266,190.859 96.5,195.5C 95.8333,198.167 95.1667,200.833 94.5,203.5C 94.3984,195.883 95.3984,188.55 97.5,181.5 Z"/></g>
<g><path style="opacity:0.831" fill="#c2eafa" d="M 377.5,191.5 C 379.416,195.163 380.416,199.163 380.5,203.5C 379.5,200.833 378.5,198.167 377.5,195.5C 377.5,194.167 377.5,192.833 377.5,191.5 Z"/></g>
<g><path style="opacity:0.09" fill="#cef7ff" d="M 380.5,205.5 C 382.04,207.838 382.706,210.505 382.5,213.5C 381.833,212.167 381.167,210.833 380.5,209.5C 380.5,208.167 380.5,206.833 380.5,205.5 Z"/></g>
<g><path style="opacity:1" fill="#67bdf3" d="M 182.5,183.5 C 181.367,190.171 180.367,196.838 179.5,203.5C 178.71,204.609 178.21,205.942 178,207.5C 177.833,212.833 177.667,218.167 177.5,223.5C 177.505,229.211 178.172,234.544 179.5,239.5C 180.295,243.785 180.628,248.119 180.5,252.5C 180.5,254.833 180.5,257.167 180.5,259.5C 179.883,259.389 179.383,259.056 179,258.5C 176.824,239.888 176.157,221.221 177,202.5C 177.446,199.657 177.946,196.824 178.5,194C 177.574,190.861 177.408,187.694 178,184.5C 178.333,185.167 178.667,185.833 179,186.5C 180.039,185.29 181.206,184.29 182.5,183.5 Z"/></g>
<g><path style="opacity:0.004" fill="#fefffe" d="M 444.5,214.5 C 445.833,215.167 445.833,215.167 444.5,214.5 Z"/></g>
<g><path style="opacity:0.004" fill="#fefffe" d="M 416.5,220.5 C 417.833,221.167 417.833,221.167 416.5,220.5 Z"/></g>
<g><path style="opacity:0.753" fill="#99d2ed" d="M 179.5,203.5 C 179.5,215.5 179.5,227.5 179.5,239.5C 178.172,234.544 177.505,229.211 177.5,223.5C 177.667,218.167 177.833,212.833 178,207.5C 178.21,205.942 178.71,204.609 179.5,203.5 Z"/></g>
<g><path style="opacity:0.004" fill="#00fffe" d="M 42.5,225.5 C 43.8333,226.167 43.8333,226.167 42.5,225.5 Z"/></g>
<g><path style="opacity:1" fill="#72c1f4" d="M 380.5,209.5 C 381.167,210.833 381.833,212.167 382.5,213.5C 385.134,229.163 385.134,244.83 382.5,260.5C 381.343,263.273 380.676,266.273 380.5,269.5C 380.118,276.361 378.785,283.028 376.5,289.5C 375.326,290.514 374.66,291.847 374.5,293.5C 374.5,294.167 374.5,294.833 374.5,295.5C 373.833,295.833 373.167,296.167 372.5,296.5C 370.585,293.324 370.585,290.324 372.5,287.5C 373.192,288.025 373.692,288.692 374,289.5C 380.902,263.399 383.069,236.732 380.5,209.5 Z"/></g>
<g><path style="opacity:0.518" fill="#afe3f8" d="M 94.5,239.5 C 95.6525,246.309 96.3192,253.309 96.5,260.5C 94.7789,253.747 94.1122,246.747 94.5,239.5 Z"/></g>
<g><path style="opacity:0.979" fill="#82c9f0" d="M 303.5,215.5 C 304.222,215.918 304.722,216.584 305,217.5C 305.643,233.928 304.809,250.261 302.5,266.5C 301.5,266.5 300.5,266.5 299.5,266.5C 303.028,249.7 304.361,232.7 303.5,215.5 Z"/></g>
<g><path style="opacity:1" fill="#68bdf1" d="M 96.5,195.5 C 95.8858,214.607 96.5524,233.607 98.5,252.5C 98.3918,253.442 98.0585,254.275 97.5,255C 99.2774,263.395 100.611,271.895 101.5,280.5C 101.5,281.5 101.5,282.5 101.5,283.5C 100.566,282.432 100.232,281.099 100.5,279.5C 100.435,276.572 99.7682,273.905 98.5,271.5C 97.3126,268.054 96.6459,264.387 96.5,260.5C 96.3192,253.309 95.6525,246.309 94.5,239.5C 93.252,227.553 93.252,215.553 94.5,203.5C 95.1667,200.833 95.8333,198.167 96.5,195.5 Z"/></g>
<g><path style="opacity:1" fill="#8ecef4" d="M 180.5,252.5 C 182.237,256.542 183.237,260.876 183.5,265.5C 181.992,263.819 180.992,261.819 180.5,259.5C 180.5,257.167 180.5,254.833 180.5,252.5 Z"/></g>
<g><path style="opacity:0.851" fill="#b1e8fa" d="M 183.5,265.5 C 184.738,267.214 185.405,269.214 185.5,271.5C 183.926,269.898 183.259,267.898 183.5,265.5 Z"/></g>
<g><path style="opacity:0.055" fill="#d2f9ff" d="M 382.5,260.5 C 382.785,263.829 382.118,266.829 380.5,269.5C 380.676,266.273 381.343,263.273 382.5,260.5 Z"/></g>
<g><path style="opacity:0.043" fill="#d9f7ff" d="M 299.5,268.5 C 299.34,270.153 298.674,271.486 297.5,272.5C 297.229,270.62 297.896,269.287 299.5,268.5 Z"/></g>
<g><path style="opacity:0.118" fill="#d2f6fe" d="M 98.5,271.5 C 99.7682,273.905 100.435,276.572 100.5,279.5C 98.9605,277.162 98.2938,274.495 98.5,271.5 Z"/></g>
<g><path style="opacity:0.745" fill="#adddf4" d="M 297.5,273.5 C 297.88,275.698 297.213,277.365 295.5,278.5C 295.402,276.447 296.069,274.78 297.5,273.5 Z"/></g>
<g><path style="opacity:0.208" fill="#cff2ff" d="M 186.5,275.5 C 187.906,275.973 188.573,276.973 188.5,278.5C 187.094,278.027 186.427,277.027 186.5,275.5 Z"/></g>
<g><path style="opacity:0.043" fill="#dcf7ff" d="M 188.5,279.5 C 189.906,279.973 190.573,280.973 190.5,282.5C 189.094,282.027 188.427,281.027 188.5,279.5 Z"/></g>
<g><path style="opacity:0.165" fill="#dafcff" d="M 294.5,281.5 C 294.573,283.027 293.906,284.027 292.5,284.5C 292.427,282.973 293.094,281.973 294.5,281.5 Z"/></g>
<g><path style="opacity:0.039" fill="#e6fbff" d="M 190.5,283.5 C 192.669,285.34 194.002,287.674 194.5,290.5C 192.412,288.664 191.079,286.331 190.5,283.5 Z"/></g>
<g><path style="opacity:0.004" fill="#fefffe" d="M 94.5,288.5 C 95.8333,289.167 95.8333,289.167 94.5,288.5 Z"/></g>
<g><path style="opacity:0.992" fill="#95d2f3" d="M 292.5,285.5 C 292.264,288.621 290.931,290.954 288.5,292.5C 289.079,289.669 290.412,287.336 292.5,285.5 Z"/></g>
<g><path style="opacity:0.004" fill="#fefffe" d="M 473.5,289.5 C 474.833,290.167 474.833,290.167 473.5,289.5 Z"/></g>
<g><path style="opacity:0.804" fill="#99d5f2" d="M 103.5,289.5 C 105.256,290.552 105.923,292.219 105.5,294.5C 104.069,293.22 103.402,291.553 103.5,289.5 Z"/></g>
<g><path style="opacity:0.004" fill="#fefffe" d="M 475.5,291.5 C 476.833,292.167 476.833,292.167 475.5,291.5 Z"/></g>
<g><path style="opacity:0.125" fill="#cff8ff" d="M 376.5,289.5 C 376.771,291.38 376.104,292.713 374.5,293.5C 374.66,291.847 375.326,290.514 376.5,289.5 Z"/></g>
<g><path style="opacity:0.486" fill="#b5e6fd" d="M 195.5,292.5 C 196.906,292.973 197.573,293.973 197.5,295.5C 197.167,295.5 196.833,295.5 196.5,295.5C 195.89,294.609 195.557,293.609 195.5,292.5 Z"/></g>
<g><path style="opacity:0.624" fill="#bde5fb" d="M 288.5,292.5 C 287.876,294.754 286.543,296.421 284.5,297.5C 285.136,295.205 286.469,293.539 288.5,292.5 Z"/></g>
<g><path style="opacity:0.647" fill="#c7ebfb" d="M 201.5,299.5 C 203.167,300.5 204.5,301.833 205.5,303.5C 203.167,303.167 201.833,301.833 201.5,299.5 Z"/></g>
<g><path style="opacity:0.298" fill="#d9f8ff" d="M 374.5,295.5 C 374.065,298.157 373.065,300.491 371.5,302.5C 371.833,300.5 372.167,298.5 372.5,296.5C 373.167,296.167 373.833,295.833 374.5,295.5 Z"/></g>
<g><path style="opacity:0.004" fill="#fefffe" d="M 74.5,301.5 C 75.8333,302.167 75.8333,302.167 74.5,301.5 Z"/></g>
<g><path style="opacity:0.667" fill="#b5e4f9" d="M 284.5,297.5 C 283.478,300.522 281.478,302.522 278.5,303.5C 280.215,301.118 282.215,299.118 284.5,297.5 Z"/></g>
<g><path style="opacity:0.992" fill="#a3d3ee" d="M 108.5,302.5 C 110.913,303.68 111.913,305.68 111.5,308.5C 110.508,306.544 109.508,304.544 108.5,302.5 Z"/></g>
<g><path style="opacity:1" fill="#59baf4" d="M 196.5,295.5 C 196.833,295.5 197.167,295.5 197.5,295.5C 199.264,296.326 200.598,297.659 201.5,299.5C 201.833,301.833 203.167,303.167 205.5,303.5C 206.833,304.167 207.833,305.167 208.5,306.5C 208.973,307.906 209.973,308.573 211.5,308.5C 212.492,308.328 213.158,308.662 213.5,309.5C 213.782,310.778 214.449,311.778 215.5,312.5C 209.496,311.16 204.163,308.494 199.5,304.5C 199.833,303.833 200.167,303.167 200.5,302.5C 197.453,301.125 196.12,298.792 196.5,295.5 Z"/></g>
<g><path style="opacity:0.004" fill="#fefffe" d="M 90.5,305.5 C 91.8333,306.167 91.8333,306.167 90.5,305.5 Z"/></g>
<g><path style="opacity:0.145" fill="#cef3fe" d="M 371.5,302.5 C 371.598,304.553 370.931,306.22 369.5,307.5C 369.402,305.447 370.069,303.78 371.5,302.5 Z"/></g>
<g><path style="opacity:0.004" fill="#fefffe" d="M 68.5,306.5 C 69.8333,307.167 69.8333,307.167 68.5,306.5 Z"/></g>
<g><path style="opacity:0.431" fill="#cdf8ff" d="M 276.5,305.5 C 276.027,306.906 275.027,307.573 273.5,307.5C 273.973,306.094 274.973,305.427 276.5,305.5 Z"/></g>
<g><path style="opacity:0.047" fill="#e1fcff" d="M 208.5,306.5 C 210.027,306.427 211.027,307.094 211.5,308.5C 209.973,308.573 208.973,307.906 208.5,306.5 Z"/></g>
<g><path style="opacity:0.075" fill="#bfecf9" d="M 213.5,309.5 C 215.23,310.026 216.564,311.026 217.5,312.5C 217.167,312.5 216.833,312.5 216.5,312.5C 216.167,312.5 215.833,312.5 215.5,312.5C 214.449,311.778 213.782,310.778 213.5,309.5 Z"/></g>
<g><path style="opacity:0.996" fill="#98d0f0" d="M 273.5,307.5 C 272.522,310.325 270.522,311.658 267.5,311.5C 269.223,309.782 271.223,308.449 273.5,307.5 Z"/></g>
<g><path style="opacity:0.933" fill="#aadbf5" d="M 367.5,310.5 C 367.598,312.553 366.931,314.22 365.5,315.5C 365.077,313.219 365.744,311.552 367.5,310.5 Z"/></g>
<g><path style="opacity:0.278" fill="#cbf9ff" d="M 112.5,310.5 C 113.906,310.973 114.573,311.973 114.5,313.5C 113.094,313.027 112.427,312.027 112.5,310.5 Z"/></g>
<g><path style="opacity:0.008" fill="#eafbff" d="M 114.5,314.5 C 115.906,314.973 116.573,315.973 116.5,317.5C 115.094,317.027 114.427,316.027 114.5,314.5 Z"/></g>
<g><path style="opacity:0.976" fill="#9dd3f1" d="M 365.5,315.5 C 364.89,317.434 363.89,319.101 362.5,320.5C 362.5,318.833 362.5,317.167 362.5,315.5C 363.5,315.5 364.5,315.5 365.5,315.5 Z"/></g>
<g><path style="opacity:1" fill="#7bc6f3" d="M 267.5,311.5 C 265.378,315.278 262.045,317.278 257.5,317.5C 246.272,318.177 235.105,318.843 224,319.5C 221.266,318.638 221.099,317.805 223.5,317C 220.696,315.992 218.363,314.492 216.5,312.5C 216.833,312.5 217.167,312.5 217.5,312.5C 218.791,312.263 219.791,312.596 220.5,313.5C 221.635,315.213 223.302,315.88 225.5,315.5C 236.116,317.534 246.782,317.534 257.5,315.5C 260.491,315.834 262.824,314.834 264.5,312.5C 265.391,311.89 266.391,311.557 267.5,311.5 Z"/></g>
<g><path style="opacity:0.82" fill="#b5e7f9" d="M 264.5,312.5 C 262.824,314.834 260.491,315.834 257.5,315.5C 259.649,314.264 261.982,313.264 264.5,312.5 Z"/></g>
<g><path style="opacity:0.663" fill="#b5e7f3" d="M 220.5,313.5 C 222.403,313.796 224.07,314.463 225.5,315.5C 223.302,315.88 221.635,315.213 220.5,313.5 Z"/></g>
<g><path style="opacity:0.004" fill="#fefffe" d="M 467.5,318.5 C 468.833,319.167 468.833,319.167 467.5,318.5 Z"/></g>
<g><path style="opacity:0.027" fill="#d0f8ff" d="M 118.5,320.5 C 119.906,320.973 120.573,321.973 120.5,323.5C 119.094,323.027 118.427,322.027 118.5,320.5 Z"/></g>
<g><path style="opacity:0.004" fill="#fefffe" d="M 494.5,321.5 C 495.833,322.167 495.833,322.167 494.5,321.5 Z"/></g>
<g><path style="opacity:0.008" fill="#e8fcff" d="M 361.5,321.5 C 361.771,323.38 361.104,324.713 359.5,325.5C 359.66,323.847 360.326,322.514 361.5,321.5 Z"/></g>
<g><path style="opacity:0.694" fill="#b8e4f7" d="M 121.5,325.5 C 123.531,326.539 124.864,328.205 125.5,330.5C 123.457,329.421 122.124,327.754 121.5,325.5 Z"/></g>
<g><path style="opacity:0.004" fill="#fefffe" d="M 395.5,327.5 C 396.833,328.167 396.833,328.167 395.5,327.5 Z"/></g>
<g><path style="opacity:1" fill="#8bcdf2" d="M 362.5,320.5 C 362.5,321.167 362.167,321.5 361.5,321.5C 360.326,322.514 359.66,323.847 359.5,325.5C 356.511,330.808 352.844,335.475 348.5,339.5C 349.791,338.527 349.791,337.527 348.5,336.5C 349.325,335.614 350.325,335.281 351.5,335.5C 352.783,332.99 353.783,330.323 354.5,327.5C 355.5,327.5 356.5,327.5 357.5,327.5C 357.674,325.139 358.007,322.806 358.5,320.5C 359.833,320.5 361.167,320.5 362.5,320.5 Z"/></g>
<g><path style="opacity:1" fill="#53baf9" d="M 101.5,280.5 C 103.129,282.858 104.295,285.524 105,288.5C 106.156,287.007 106.99,287.174 107.5,289C 106.852,290.44 106.519,291.94 106.5,293.5C 107.873,293.343 109.207,293.51 110.5,294C 110.167,295 109.833,296 109.5,297C 112.941,304.373 115.941,311.873 118.5,319.5C 119.833,319.5 121.167,319.5 122.5,319.5C 122.784,316.746 123.451,314.08 124.5,311.5C 125.481,315.182 125.981,318.849 126,322.5C 124.456,319.736 123.289,319.903 122.5,323C 123.667,323.5 124.5,324.333 125,325.5C 127.004,321.42 129.67,320.754 133,323.5C 133.667,324.167 133.667,324.833 133,325.5C 131.759,323.579 130.259,323.246 128.5,324.5C 129.605,325.892 130.939,327.059 132.5,328C 131.833,328.333 131.167,328.667 130.5,329C 131.59,331.549 133.257,332.383 135.5,331.5C 136.5,332.833 137.5,334.167 138.5,335.5C 139.478,335.023 140.311,334.357 141,333.5C 142.366,335.37 143.533,337.37 144.5,339.5C 142.817,340.853 141.484,342.52 140.5,344.5C 140.833,345.167 141.167,345.833 141.5,346.5C 144.07,347.223 146.403,348.39 148.5,350C 149.035,352.109 150.035,352.609 151.5,351.5C 152.206,353.704 153.206,355.704 154.5,357.5C 153.833,357.5 153.167,357.5 152.5,357.5C 151.738,355.738 150.404,354.738 148.5,354.5C 147.167,354.5 146.5,353.833 146.5,352.5C 146.027,351.094 145.027,350.427 143.5,350.5C 141.167,348.833 139.167,346.833 137.5,344.5C 137.512,341.858 136.179,340.525 133.5,340.5C 133.573,338.973 132.906,337.973 131.5,337.5C 131.512,334.858 130.179,333.525 127.5,333.5C 127.573,331.973 126.906,330.973 125.5,330.5C 124.864,328.205 123.531,326.539 121.5,325.5C 121.167,324.833 120.833,324.167 120.5,323.5C 120.573,321.973 119.906,320.973 118.5,320.5C 117.094,320.027 116.427,319.027 116.5,317.5C 116.573,315.973 115.906,314.973 114.5,314.5C 114.5,314.167 114.5,313.833 114.5,313.5C 114.573,311.973 113.906,310.973 112.5,310.5C 111.662,310.158 111.328,309.492 111.5,308.5C 111.913,305.68 110.913,303.68 108.5,302.5C 106.98,300.11 105.98,297.443 105.5,294.5C 105.923,292.219 105.256,290.552 103.5,289.5C 101.926,287.898 101.259,285.898 101.5,283.5C 101.5,282.5 101.5,281.5 101.5,280.5 Z"/></g>
<g><path style="opacity:0.024" fill="#d8fbff" d="M 125.5,330.5 C 126.906,330.973 127.573,331.973 127.5,333.5C 126.094,333.027 125.427,332.027 125.5,330.5 Z"/></g>
<g><path style="opacity:1" fill="#8fceef" d="M 127.5,333.5 C 130.179,333.525 131.512,334.858 131.5,337.5C 129.736,336.674 128.402,335.341 127.5,333.5 Z"/></g>
<g><path style="opacity:0.031" fill="#caf3ff" d="M 131.5,337.5 C 132.906,337.973 133.573,338.973 133.5,340.5C 132.094,340.027 131.427,339.027 131.5,337.5 Z"/></g>
<g><path style="opacity:0.004" fill="#fefffe" d="M 406.5,338.5 C 407.833,339.167 407.833,339.167 406.5,338.5 Z"/></g>
<g><path style="opacity:0.031" fill="#d1fbff" d="M 348.5,339.5 C 348.5,340.833 347.833,341.5 346.5,341.5C 346.833,340.5 347.5,339.833 348.5,339.5 Z"/></g>
<g><path style="opacity:0.004" fill="#fefffe" d="M 493.5,340.5 C 494.833,341.167 494.833,341.167 493.5,340.5 Z"/></g>
<g><path style="opacity:1" fill="#8ecdf1" d="M 133.5,340.5 C 136.179,340.525 137.512,341.858 137.5,344.5C 135.833,343.5 134.5,342.167 133.5,340.5 Z"/></g>
<g><path style="opacity:0.988" fill="#98d3f4" d="M 346.5,341.5 C 345.92,343.749 344.587,345.415 342.5,346.5C 342.5,345.167 342.5,343.833 342.5,342.5C 343.959,342.567 345.292,342.234 346.5,341.5 Z"/></g>
<g><path style="opacity:0.094" fill="#daf7fe" d="M 342.5,346.5 C 341.833,347.833 340.833,348.833 339.5,349.5C 339.5,347.5 340.5,346.5 342.5,346.5 Z"/></g>
<g><path style="opacity:0.573" fill="#b8e8fe" d="M 143.5,350.5 C 145.027,350.427 146.027,351.094 146.5,352.5C 144.973,352.573 143.973,351.906 143.5,350.5 Z"/></g>
<g><path style="opacity:1" fill="#7fc8f4" d="M 337.5,351.5 C 335.858,352.803 334.191,354.136 332.5,355.5C 332.167,355.5 331.833,355.5 331.5,355.5C 331.461,354.417 331.127,353.417 330.5,352.5C 332.743,351.526 335.076,351.192 337.5,351.5 Z"/></g>
<g><path style="opacity:0.584" fill="#c2efff" d="M 148.5,354.5 C 150.404,354.738 151.738,355.738 152.5,357.5C 150.596,357.262 149.262,356.262 148.5,354.5 Z"/></g>
<g><path style="opacity:0.004" fill="#fefffe" d="M 41.5,355.5 C 42.8333,356.167 42.8333,356.167 41.5,355.5 Z"/></g>
<g><path style="opacity:0.012" fill="#e5f9ff" d="M 331.5,355.5 C 331.833,355.5 332.167,355.5 332.5,355.5C 331.738,357.262 330.404,358.262 328.5,358.5C 329.167,357.167 330.167,356.167 331.5,355.5 Z"/></g>
<g><path style="opacity:0.506" fill="#c1e7f9" d="M 152.5,357.5 C 153.167,357.5 153.833,357.5 154.5,357.5C 155.167,358.5 155.833,359.5 156.5,360.5C 154.596,360.262 153.262,359.262 152.5,357.5 Z"/></g>
<g><path style="opacity:0.004" fill="#fefffe" d="M 150.5,360.5 C 151.833,361.167 151.833,361.167 150.5,360.5 Z"/></g>
<g><path style="opacity:0.004" fill="#f2feff" d="M 327.5,359.5 C 327.027,360.906 326.027,361.573 324.5,361.5C 324.973,360.094 325.973,359.427 327.5,359.5 Z"/></g>
<g><path style="opacity:0.357" fill="#d1f5ff" d="M 156.5,360.5 C 158.027,360.427 159.027,361.094 159.5,362.5C 157.973,362.573 156.973,361.906 156.5,360.5 Z"/></g>
<g><path style="opacity:0.89" fill="#b1e1f5" d="M 319.5,364.5 C 318.341,366.25 316.674,367.25 314.5,367.5C 315.344,365.241 317.011,364.241 319.5,364.5 Z"/></g>
<g><path style="opacity:0.486" fill="#baeafe" d="M 163.5,364.5 C 165.404,364.738 166.738,365.738 167.5,367.5C 165.596,367.262 164.262,366.262 163.5,364.5 Z"/></g>
<g><path style="opacity:0.004" fill="#fefffe" d="M 447.5,367.5 C 448.833,368.167 448.833,368.167 447.5,367.5 Z"/></g>
<g><path style="opacity:0.282" fill="#c0effd" d="M 168.5,367.5 C 170.027,367.427 171.027,368.094 171.5,369.5C 169.973,369.573 168.973,368.906 168.5,367.5 Z"/></g>
<g><path style="opacity:0.094" fill="#d9f7ff" d="M 314.5,367.5 C 313.713,369.104 312.38,369.771 310.5,369.5C 310.5,369.167 310.5,368.833 310.5,368.5C 311.833,368.167 313.167,367.833 314.5,367.5 Z"/></g>
<g><path style="opacity:1" fill="#83c7f2" d="M 171.5,369.5 C 174.167,369.833 176.833,370.167 179.5,370.5C 179.5,371.5 179.5,372.5 179.5,373.5C 176.515,372.674 173.849,371.341 171.5,369.5 Z"/></g>
<g><path style="opacity:0.996" fill="#80c6ef" d="M 310.5,369.5 C 310.027,370.906 309.027,371.573 307.5,371.5C 306.041,371.433 304.708,371.766 303.5,372.5C 305.09,370.179 307.423,369.179 310.5,369.5 Z"/></g>
<g><path style="opacity:0.173" fill="#e3fdff" d="M 307.5,371.5 C 306.22,372.931 304.553,373.598 302.5,373.5C 302.5,372.833 302.833,372.5 303.5,372.5C 304.708,371.766 306.041,371.433 307.5,371.5 Z"/></g>
<g><path style="opacity:0.867" fill="#a3d9f3" d="M 182.5,374.5 C 185.491,374.166 187.824,375.166 189.5,377.5C 186.843,377.065 184.509,376.065 182.5,374.5 Z"/></g>
<g><path style="opacity:0.004" fill="#fefffe" d="M 437.5,374.5 C 438.833,375.167 438.833,375.167 437.5,374.5 Z"/></g>
<g><path style="opacity:0.098" fill="#dcfcff" d="M 299.5,374.5 C 298.713,376.104 297.38,376.771 295.5,376.5C 296.514,375.326 297.847,374.66 299.5,374.5 Z"/></g>
<g><path style="opacity:0.004" fill="#fefffe" d="M 363.5,375.5 C 364.833,376.167 364.833,376.167 363.5,375.5 Z"/></g>
<g><path style="opacity:0.914" fill="#aee0f1" d="M 190.5,377.5 C 192.898,377.259 194.898,377.926 196.5,379.5C 194.214,379.405 192.214,378.738 190.5,377.5 Z"/></g>
<g><path style="opacity:1" fill="#73c3f5" d="M 310.5,368.5 C 310.5,368.833 310.5,369.167 310.5,369.5C 307.423,369.179 305.09,370.179 303.5,372.5C 302.833,372.5 302.5,372.833 302.5,373.5C 301.791,374.404 300.791,374.737 299.5,374.5C 297.847,374.66 296.514,375.326 295.5,376.5C 287.089,379.769 278.423,382.103 269.5,383.5C 262.907,383.085 256.574,383.752 250.5,385.5C 240.756,386.659 231.089,386.326 221.5,384.5C 221.5,384.167 221.5,383.833 221.5,383.5C 236.889,383.902 252.222,383.236 267.5,381.5C 268.246,380.264 268.579,378.93 268.5,377.5C 271.826,377.354 274.993,378.021 278,379.5C 282.069,378.204 286.236,377.371 290.5,377C 293.215,375.092 296.215,373.759 299.5,373C 300.667,371.167 301.833,369.333 303,367.5C 305.381,368.435 307.881,368.768 310.5,368.5 Z"/></g>
<g><path style="opacity:0.102" fill="#c3edfc" d="M 209.5,382.5 C 213.466,383.162 217.466,383.495 221.5,383.5C 221.5,383.833 221.5,384.167 221.5,384.5C 217.183,384.917 213.183,384.25 209.5,382.5 Z"/></g>
<g><path style="opacity:0.031" fill="#caf2fb" d="M 269.5,383.5 C 263.383,384.879 257.05,385.546 250.5,385.5C 256.574,383.752 262.907,383.085 269.5,383.5 Z"/></g>
<g><path style="opacity:0.004" fill="#fefffe" d="M 416.5,386.5 C 417.833,387.167 417.833,387.167 416.5,386.5 Z"/></g>
<g><path style="opacity:0.004" fill="#fefffe" d="M 105.5,398.5 C 106.833,399.167 106.833,399.167 105.5,398.5 Z"/></g>
<g><path style="opacity:0.004" fill="#fefffe" d="M 494.5,403.5 C 495.833,404.167 495.833,404.167 494.5,403.5 Z"/></g>
<g><path style="opacity:0.004" fill="#fefffe" d="M 474.5,405.5 C 475.833,406.167 475.833,406.167 474.5,405.5 Z"/></g>
<g><path style="opacity:0.004" fill="#fefffe" d="M 370.5,409.5 C 371.833,410.167 371.833,410.167 370.5,409.5 Z"/></g>
<g><path style="opacity:0.004" fill="#fefffe" d="M 328.5,413.5 C 329.833,414.167 329.833,414.167 328.5,413.5 Z"/></g>
<g><path style="opacity:0.004" fill="#fefffe" d="M 18.5,420.5 C 19.8333,421.167 19.8333,421.167 18.5,420.5 Z"/></g>
<g><path style="opacity:0.004" fill="#fefffe" d="M 426.5,427.5 C 427.833,428.167 427.833,428.167 426.5,427.5 Z"/></g>
<g><path style="opacity:0.004" fill="#fefffe" d="M 223.5,433.5 C 224.833,434.167 224.833,434.167 223.5,433.5 Z"/></g>
<g><path style="opacity:0.004" fill="#fefffe" d="M 136.5,435.5 C 137.833,436.167 137.833,436.167 136.5,435.5 Z"/></g>
<g><path style="opacity:0.004" fill="#fefffe" d="M 126.5,450.5 C 127.833,451.167 127.833,451.167 126.5,450.5 Z"/></g>
<g><path style="opacity:0.004" fill="#fefffe" d="M 1.5,453.5 C 2.83333,454.167 2.83333,454.167 1.5,453.5 Z"/></g>
<g><path style="opacity:0.004" fill="#fefffe" d="M 294.5,457.5 C 295.833,458.167 295.833,458.167 294.5,457.5 Z"/></g>
<g><path style="opacity:0.004" fill="#fefffe" d="M 111.5,466.5 C 112.833,467.167 112.833,467.167 111.5,466.5 Z"/></g>
<g><path style="opacity:0.004" fill="#fefffe" d="M 5.5,478.5 C 6.83333,479.167 6.83333,479.167 5.5,478.5 Z"/></g>
<g><path style="opacity:0.004" fill="#fefffe" d="M 84.5,480.5 C 85.8333,481.167 85.8333,481.167 84.5,480.5 Z"/></g>
<g><path style="opacity:0.004" fill="#fefffe" d="M 295.5,493.5 C 296.833,494.167 296.833,494.167 295.5,493.5 Z"/></g>
<g><path style="opacity:0.004" fill="#fefffe" d="M 265.5,494.5 C 266.833,495.167 266.833,495.167 265.5,494.5 Z"/></g>
<g><path style="opacity:0.004" fill="#fefffe" d="M 147.5,496.5 C 148.833,497.167 148.833,497.167 147.5,496.5 Z"/></g>
<g><path style="opacity:0.004" fill="#fefffe" d="M 186.5,496.5 C 187.833,497.167 187.833,497.167 186.5,496.5 Z"/></g>
<g><path style="opacity:0.004" fill="#fefffe" d="M 382.5,496.5 C 383.833,497.167 383.833,497.167 382.5,496.5 Z"/></g>
</svg>
